<svg xmlns="http://www.w3.org/2000/svg" width="169" height="158"><path stroke="#FFF" stroke-width="2" fill="none" d="M82.068 1.249c27.413 1.877 53.257 12.902 67.762 27.184 15.122 14.528 18.905 32.315 16.47 53.392-2.744 21.267-11.459 40.635-26.022 52.253-14.355 12.155-34.558 16.561-55.461 20.305-40.412 9.13-78.969-21.485-83.715-66.069C-1.091 45.526 27.748-2.964 82.068 1.249h0z"/><path fill-rule="evenodd" fill="#FFF" d="M82.615 11.621c23.645 1.621 45.938 11.143 58.449 23.48 13.045 12.547 16.307 27.91 14.207 46.115-2.367 18.368-9.884 35.096-22.446 45.131-12.382 10.499-29.809 14.304-47.839 17.538-34.858 7.885-68.117-18.557-72.211-57.065-1.892-36.956 22.985-78.838 69.84-75.199z"/></svg>