<svg width="48" height="48" viewBox="0 0 48 48" fill="none" xmlns="http://www.w3.org/2000/svg">
<circle cx="24" cy="24" r="24" fill="white"/>
<path d="M22.6396 37.7291C22.6308 37.7253 22.6229 37.7197 22.6164 37.7127L22.6081 37.7049C22.5709 37.6702 22.5356 37.6335 22.5024 37.5951C22.4134 37.494 22.294 37.346 22.189 37.2153C21.9809 36.9558 21.8089 36.7323 21.7765 36.6902L21.7235 36.6213L21.2046 36.4613L20.8257 36.2846L21.0281 36.0571L21.7235 36.3548L22.2425 36.4613L23.2021 37.1671L23.2014 37.1677C23.1994 37.1693 23.0618 37.2838 22.925 37.4082C22.864 37.4636 22.7871 37.5348 22.7328 37.5941C22.7078 37.6214 22.6857 37.6484 22.6707 37.6703C22.664 37.6801 22.6583 37.6907 22.6538 37.7017L22.7134 37.6647L22.7781 37.7149L22.6466 37.7272L22.6406 37.7285L22.6396 37.7291ZM19.0758 36.6587C18.623 36.6586 18.1757 36.5335 17.7465 36.2868L17.7461 36.2865L17.7463 36.286C17.7463 36.286 17.8024 36.179 17.9386 36.0791C18.0682 35.9839 18.3022 35.8701 18.6802 35.8686H18.688C19.1357 35.8686 19.6836 36.0208 20.3164 36.321C20.2951 36.3352 19.7982 36.6587 19.076 36.6587L19.0767 36.6594L19.0758 36.6587ZM17.1135 36.2238C17.0298 36.2238 16.9545 36.1921 16.9017 36.1347C16.8583 36.0875 16.8272 36.0247 16.8067 35.9424C16.773 35.8076 16.7823 35.6735 16.7832 35.6607C16.8162 35.6464 16.8516 35.6384 16.8876 35.637L16.8951 35.6369C17.0628 35.6369 17.1951 35.7824 17.2517 35.9266C17.2839 36.0086 17.2901 36.0776 17.27 36.1316C17.25 36.1857 17.1872 36.2231 17.1137 36.2231L17.1135 36.2238ZM20.5664 35.8235C19.4066 35.6579 18.915 35.2386 18.7068 34.916C18.4848 34.572 18.5303 34.2538 18.5308 34.2506L18.531 34.2496L18.5319 34.2494C18.5322 34.2494 18.6027 34.2303 18.7094 34.2298C19.018 34.2298 19.8072 34.385 20.5667 35.8227L20.5672 35.8237L20.5659 35.823L20.5664 35.8235ZM18.1892 35.5937C17.6937 35.5936 17.3165 35.5082 17.0679 35.3395C16.9251 35.2427 16.8552 35.1362 16.8216 35.0639C16.7902 34.9962 16.7831 34.9399 16.7819 34.9288C16.795 34.9228 16.9979 34.8327 17.3008 34.8185C17.3263 34.8173 17.3521 34.8166 17.3792 34.8165C17.7622 34.8165 18.3445 34.9415 18.9591 35.5368L18.9597 35.5374L18.9589 35.5374C18.6783 35.5742 18.4191 35.5936 18.1886 35.5936L18.1892 35.5937ZM15.7899 35.5015C15.2674 35.5015 14.5496 35.342 14.102 34.8944L14.1015 34.8938L14.1029 34.8935C14.1075 34.8923 14.5934 34.769 15.14 34.7557C15.1726 34.7549 15.2054 34.7545 15.2386 34.7545C15.7284 34.7545 16.1034 34.8495 16.3531 35.0367C16.4403 35.1022 16.488 35.163 16.4987 35.2227C16.5076 35.2725 16.4813 35.3262 16.4281 35.3663C16.3157 35.4513 16.1146 35.4966 15.8305 35.5011L15.7904 35.5024L15.7899 35.5015ZM14.0968 34.6329C14.0652 34.633 14.0339 34.626 14.0053 34.6125C13.9766 34.599 13.9514 34.5794 13.9312 34.555C13.8974 34.5139 13.8739 34.4603 13.8572 34.3865C13.8293 34.263 13.8377 34.1422 13.8377 34.141L13.8378 34.1398C13.8633 34.128 13.891 34.1217 13.9191 34.1214H13.9193C13.9966 34.1214 14.0556 34.1635 14.0923 34.1988C14.1429 34.2483 14.1814 34.3088 14.2051 34.3755C14.2295 34.4443 14.2334 34.5019 14.2171 34.5515C14.2038 34.591 14.1583 34.6324 14.0968 34.6324V34.6329ZM18.0074 34.5447C17.9237 34.5447 17.8485 34.5131 17.7956 34.4557C17.7523 34.4085 17.7212 34.3457 17.7006 34.2634C17.667 34.1286 17.6762 33.9945 17.6772 33.9816C17.7102 33.9674 17.7456 33.9593 17.7815 33.958L17.789 33.9578C17.9568 33.9578 18.089 34.1034 18.1457 34.2476C18.1778 34.3296 18.184 34.3985 18.164 34.4525C18.1439 34.5073 18.0805 34.5441 18.0076 34.5441L18.0074 34.5447ZM16.1026 34.4659C15.0511 34.4289 14.5055 34.13 14.2329 33.8858C14.0794 33.7482 13.9941 33.6119 13.9496 33.5218C13.9076 33.4367 13.8917 33.3716 13.8889 33.3589L13.8903 33.3583C13.8905 33.3583 13.9898 33.3228 14.1499 33.3196L14.1745 33.3194C14.5291 33.3194 15.2509 33.4683 16.1022 34.4654V34.4661L16.1026 34.4659ZM17.2444 34.3597C16.3985 34.2308 15.9193 33.8677 15.6662 33.5856C15.4008 33.29 15.3214 33.0146 15.3179 33.0018C15.3194 33.0013 15.4228 32.9744 15.5784 32.9705C15.6024 32.9698 15.6264 32.9698 15.6504 32.9705C16.0759 32.9798 16.8486 33.1725 17.2442 34.3592H17.2449L17.2444 34.3597ZM12.9016 33.9534C12.6243 33.9534 12.3554 33.9214 12.1023 33.8581C11.6594 33.7473 11.4694 33.5782 11.388 33.4558C11.3418 33.3863 11.325 33.3254 11.3191 33.2865C11.3154 33.2628 11.3147 33.2387 11.3171 33.2148L11.3191 33.2141C11.3203 33.2138 11.6131 33.1316 12.0183 33.1253C12.2265 33.1216 12.4346 33.14 12.6389 33.1804C13.3429 33.3212 13.7079 33.8525 13.7115 33.8579L13.7118 33.8585L13.7109 33.8587C13.7069 33.8594 13.3715 33.9536 12.9012 33.9536L12.9016 33.9534ZM14.8652 33.2399C14.7804 33.2399 14.7052 33.2089 14.6533 33.1527C14.6106 33.1066 14.5795 33.043 14.5584 32.9584C14.5246 32.8238 14.534 32.6911 14.5349 32.6788C14.568 32.6646 14.6034 32.6565 14.6393 32.6552L14.6468 32.655C14.8142 32.655 14.9467 32.8006 15.0035 32.9449C15.0348 33.0243 15.0403 33.0924 15.0197 33.1476C14.999 33.2037 14.9382 33.2398 14.8654 33.2398L14.8652 33.2399ZM13.3886 33.0374C13.3823 33.0359 12.9893 32.9348 12.5891 32.6883C12.2187 32.4603 11.7655 32.0569 11.7103 31.4302V31.4299L11.7112 31.4296C11.7113 31.4296 11.7457 31.4213 11.7966 31.4193C11.804 31.4191 11.8115 31.4189 11.8189 31.4189C11.9296 31.4189 12.1561 31.4501 12.4301 31.6584C12.7788 31.9243 13.1009 32.388 13.3888 33.0381L13.3886 33.0374ZM14.3527 33.002C14.3503 33.001 14.0702 32.8889 13.7201 32.5955C13.3939 32.3221 12.9353 31.8298 12.6032 31.0368C12.6034 31.0367 12.6795 30.9961 12.7961 30.9888C12.8028 30.9883 12.8096 30.9882 12.8165 30.9882C12.8265 30.9882 12.8369 30.9885 12.8474 30.9888C13.0085 30.9933 13.2539 31.0603 13.5259 31.3538C13.8383 31.691 14.1172 32.2451 14.3546 33.0008L14.3553 33.0029L14.3533 33.0023L14.3527 33.002ZM11.8546 32.9292C11.5325 32.9292 11.4222 32.7545 11.3898 32.6793C11.3365 32.5558 11.3526 32.4328 11.3528 32.4316L11.353 32.4303C11.4051 32.4173 11.4602 32.41 11.5132 32.4093L11.5242 32.4092C11.778 32.4092 11.9784 32.5381 12.0643 32.6659C12.0814 32.6912 12.1336 32.7791 12.0904 32.8477C12.0556 32.9018 11.9768 32.9292 11.8545 32.9292H11.8546ZM11.141 32.0292C10.9612 32.0292 10.686 32.0182 10.3967 31.9656C10.1098 31.9134 9.94713 31.6695 9.86128 31.4741C9.7678 31.2613 9.74141 31.0583 9.74115 31.0563H9.74195C10.6294 31.0823 11.0485 31.3416 11.2438 31.5545C11.4454 31.7743 11.4574 32.0025 11.458 32.017L11.4574 32.017C11.456 32.017 11.3311 32.0291 11.1407 32.0291L11.141 32.0292ZM12.0651 31.1058C11.993 31.015 11.9253 30.9208 11.8624 30.8234C11.7573 30.66 11.6601 30.4896 11.6601 30.3501C11.6601 30.2154 11.6284 29.9314 11.6095 29.7742C11.5856 29.5747 11.5614 29.404 11.5594 29.3895L11.5603 29.3898C11.5828 29.398 12.1154 29.5979 12.1154 30.0974C12.1154 30.5978 12.0661 31.1006 12.0656 31.1056L12.0655 31.1063H12.0649L12.0651 31.1058ZM11.3749 31.0584C11.3693 31.0584 11.3637 31.0579 11.3582 31.057C11.2008 31.0307 10.9241 30.9104 10.6183 30.7351C10.2788 30.5404 10.0031 30.3318 9.84197 30.1477C9.69511 29.9799 9.60792 29.7163 9.58273 29.3643C9.56489 29.1145 9.58627 28.9063 9.58854 28.8857C9.61607 28.8765 9.64534 28.8721 9.6764 28.8721C9.79426 28.874 9.92007 28.9271 10.0899 29.044C10.2223 29.1352 10.3682 29.2593 10.5235 29.4125C10.7916 29.6768 11.0025 29.9424 11.0045 29.945L11.0067 29.9477C11.0244 29.9794 11.1762 30.2531 11.2944 30.5195C11.3695 30.6887 11.4125 30.8106 11.4297 30.9034C11.4395 30.9562 11.4423 30.9909 11.4294 31.0224C11.424 31.0354 11.4137 31.0475 11.4037 31.0523C11.3943 31.0563 11.385 31.0583 11.3743 31.0583L11.3749 31.0584Z" fill="#435125"/>
<path d="M20.8076 37.7291C20.8164 37.7253 20.8243 37.7197 20.8308 37.7127L20.8392 37.7049C20.8763 37.6702 20.9116 37.6335 20.9449 37.5951C21.0339 37.494 21.1533 37.346 21.2582 37.2153C21.4664 36.9558 21.6383 36.7323 21.6707 36.6902L21.7237 36.6213L22.2427 36.4613L22.6216 36.2846L22.4191 36.0571L21.7237 36.3548L21.2048 36.4613L20.2451 37.1671L20.2459 37.1677C20.2478 37.1693 20.3855 37.2838 20.5222 37.4082C20.5832 37.4636 20.6601 37.5348 20.7144 37.5941C20.7395 37.6214 20.7615 37.6484 20.7766 37.6703C20.7833 37.6801 20.7889 37.6907 20.7934 37.7017L20.7338 37.6647L20.6692 37.7149L20.8007 37.7272L20.8067 37.7285L20.8076 37.7291ZM24.3715 36.6587C24.8243 36.6586 25.2715 36.5335 25.7007 36.2868L25.7012 36.2865L25.701 36.286C25.701 36.286 25.6449 36.179 25.5087 36.0791C25.379 35.9839 25.1451 35.8701 24.7671 35.8686H24.7593C24.3115 35.8686 23.7637 36.0208 23.1308 36.321C23.1522 36.3352 23.649 36.6587 24.3713 36.6587L24.3706 36.6594L24.3715 36.6587ZM26.3338 36.2238C26.4175 36.2238 26.4927 36.1921 26.5456 36.1347C26.5889 36.0875 26.62 36.0247 26.6406 35.9424C26.6743 35.8076 26.665 35.6735 26.664 35.6607C26.631 35.6464 26.5956 35.6384 26.5597 35.637L26.5522 35.6369C26.3844 35.6369 26.2522 35.7824 26.1956 35.9266C26.1634 36.0086 26.1572 36.0776 26.1772 36.1316C26.1973 36.1857 26.2601 36.2231 26.3336 36.2231L26.3338 36.2238ZM22.8809 35.8235C24.0407 35.6579 24.5323 35.2386 24.7405 34.916C24.9625 34.572 24.9169 34.2538 24.9165 34.2506L24.9163 34.2496L24.9154 34.2494C24.9151 34.2494 24.8445 34.2303 24.7378 34.2298C24.4293 34.2298 23.6401 34.385 22.8805 35.8227L22.8801 35.8237L22.8814 35.823L22.8809 35.8235ZM25.2581 35.5937C25.7536 35.5936 26.1308 35.5082 26.3794 35.3395C26.5222 35.2427 26.5921 35.1362 26.6256 35.0639C26.657 34.9962 26.6642 34.9399 26.6653 34.9288C26.6522 34.9228 26.4494 34.8327 26.1465 34.8185C26.1209 34.8173 26.0951 34.8166 26.0681 34.8165C25.6851 34.8165 25.1027 34.9415 24.4882 35.5368L24.4876 35.5374L24.4883 35.5374C24.769 35.5742 25.0282 35.5936 25.2587 35.5936L25.2581 35.5937ZM27.6574 35.5015C28.1798 35.5015 28.8976 35.342 29.3453 34.8944L29.3457 34.8938L29.3444 34.8935C29.3397 34.8923 28.8539 34.769 28.3073 34.7557C28.2747 34.7549 28.2418 34.7545 28.2087 34.7545C27.7188 34.7545 27.3439 34.8495 27.0941 35.0367C27.0069 35.1022 26.9593 35.163 26.9486 35.2227C26.9397 35.2725 26.966 35.3262 27.0192 35.3663C27.1316 35.4513 27.3327 35.4966 27.6168 35.5011L27.6569 35.5024L27.6574 35.5015ZM29.3504 34.6329C29.3821 34.633 29.4133 34.626 29.442 34.6125C29.4706 34.599 29.4959 34.5794 29.516 34.555C29.5499 34.5139 29.5734 34.4603 29.5901 34.3865C29.618 34.263 29.6096 34.1422 29.6095 34.141L29.6095 34.1398C29.5839 34.128 29.5562 34.1217 29.5281 34.1214H29.5279C29.4506 34.1214 29.3917 34.1635 29.355 34.1988C29.3044 34.2483 29.2658 34.3088 29.2422 34.3755C29.2178 34.4443 29.2139 34.5019 29.2302 34.5515C29.2435 34.591 29.2889 34.6324 29.3504 34.6324V34.6329ZM25.4398 34.5447C25.5235 34.5447 25.5988 34.5131 25.6516 34.4557C25.695 34.4085 25.7261 34.3457 25.7466 34.2634C25.7803 34.1286 25.771 33.9945 25.7701 33.9816C25.7371 33.9674 25.7017 33.9593 25.6657 33.958L25.6582 33.9578C25.4905 33.9578 25.3582 34.1034 25.3016 34.2476C25.2695 34.3296 25.2632 34.3985 25.2833 34.4525C25.3033 34.5073 25.3668 34.5441 25.4396 34.5441L25.4398 34.5447ZM27.3447 34.4659C28.3961 34.4289 28.9418 34.13 29.2144 33.8858C29.3679 33.7482 29.4532 33.6119 29.4977 33.5218C29.5396 33.4367 29.5555 33.3716 29.5583 33.3589L29.5569 33.3583C29.5567 33.3583 29.4575 33.3228 29.2974 33.3196L29.2728 33.3194C28.9182 33.3194 28.1963 33.4683 27.3451 34.4654V34.4661L27.3447 34.4659ZM26.2028 34.3597C27.0488 34.2308 27.528 33.8677 27.7811 33.5856C28.0464 33.29 28.1259 33.0146 28.1294 33.0018C28.1279 33.0013 28.0245 32.9744 27.8688 32.9705C27.8448 32.9698 27.8209 32.9698 27.7969 32.9705C27.3714 32.9798 26.5986 33.1725 26.203 34.3592H26.2024L26.2028 34.3597ZM30.5457 33.9534C30.8229 33.9534 31.0918 33.9214 31.3449 33.8581C31.7878 33.7473 31.9779 33.5782 32.0592 33.4558C32.1055 33.3863 32.1222 33.3254 32.1281 33.2865C32.1318 33.2628 32.1325 33.2387 32.1302 33.2148L32.1281 33.2141C32.127 33.2138 31.8341 33.1316 31.429 33.1253C31.2207 33.1216 31.0127 33.14 30.8084 33.1804C30.1044 33.3212 29.7393 33.8525 29.7358 33.8579L29.7355 33.8585L29.7363 33.8587C29.7403 33.8594 30.0757 33.9536 30.5461 33.9536L30.5457 33.9534ZM28.5821 33.2399C28.6668 33.2399 28.7421 33.2089 28.794 33.1527C28.8367 33.1066 28.8678 33.043 28.8889 32.9584C28.9227 32.8238 28.9133 32.6911 28.9123 32.6788C28.8793 32.6646 28.8439 32.6565 28.808 32.6552L28.8005 32.655C28.633 32.655 28.5006 32.8006 28.4438 32.9449C28.4125 33.0243 28.407 33.0924 28.4275 33.1476C28.4482 33.2037 28.509 33.2398 28.5819 33.2398L28.5821 33.2399ZM30.0586 33.0374C30.065 33.0359 30.458 32.9348 30.8582 32.6883C31.2286 32.4603 31.6817 32.0569 31.737 31.4302V31.4299L31.7361 31.4296C31.736 31.4296 31.7016 31.4213 31.6507 31.4193C31.6432 31.4191 31.6358 31.4189 31.6284 31.4189C31.5177 31.4189 31.2912 31.4501 31.0172 31.6584C30.6684 31.9243 30.3464 32.388 30.0584 33.0381L30.0586 33.0374ZM29.0945 33.002C29.097 33.001 29.3771 32.8889 29.7272 32.5955C30.0534 32.3221 30.512 31.8298 30.844 31.0368C30.8438 31.0367 30.7677 30.9961 30.6512 30.9888C30.6445 30.9883 30.6376 30.9882 30.6308 30.9882C30.6207 30.9882 30.6104 30.9885 30.5998 30.9888C30.4387 30.9933 30.1934 31.0603 29.9214 31.3538C29.609 31.691 29.3301 32.2451 29.0926 33.0008L29.092 33.0029L29.094 33.0023L29.0945 33.002ZM31.5927 32.9292C31.9148 32.9292 32.025 32.7545 32.0575 32.6793C32.1108 32.5558 32.0946 32.4328 32.0945 32.4316L32.0943 32.4303C32.0422 32.4173 31.9871 32.41 31.9341 32.4093L31.9231 32.4092C31.6692 32.4092 31.4689 32.5381 31.3829 32.6659C31.3659 32.6912 31.3137 32.7791 31.3569 32.8477C31.3916 32.9018 31.4705 32.9292 31.5927 32.9292H31.5927ZM32.3062 32.0292C32.4861 32.0292 32.7613 32.0182 33.0506 31.9656C33.3375 31.9134 33.5001 31.6695 33.586 31.4741C33.6795 31.2613 33.7059 31.0583 33.7061 31.0563H33.7053C32.8179 31.0823 32.3988 31.3416 32.2035 31.5545C32.0018 31.7743 31.9899 32.0025 31.9893 32.017L31.9899 32.017C31.9912 32.017 32.1162 32.0291 32.3066 32.0291L32.3062 32.0292ZM31.3822 31.1058C31.4543 31.015 31.5219 30.9208 31.5849 30.8234C31.69 30.66 31.7872 30.4896 31.7872 30.3501C31.7872 30.2154 31.8188 29.9314 31.8377 29.7742C31.8617 29.5747 31.8859 29.404 31.8879 29.3895L31.887 29.3898C31.8645 29.398 31.3319 29.5979 31.3319 30.0974C31.3319 30.5978 31.3812 31.1006 31.3817 31.1056L31.3817 31.1063H31.3824L31.3822 31.1058ZM32.0724 31.0584C32.078 31.0584 32.0836 31.0579 32.0891 31.057C32.2465 31.0307 32.5231 30.9104 32.8289 30.7351C33.1685 30.5404 33.4442 30.3318 33.6053 30.1477C33.7522 29.9799 33.8393 29.7163 33.8645 29.3643C33.8824 29.1145 33.861 28.9063 33.8587 28.8857C33.8312 28.8765 33.8019 28.8721 33.7709 28.8721C33.653 28.874 33.5272 28.9271 33.3574 29.044C33.225 29.1352 33.0791 29.2593 32.9237 29.4125C32.6557 29.6768 32.4448 29.9424 32.4427 29.945L32.4406 29.9477C32.4229 29.9794 32.2711 30.2531 32.1528 30.5195C32.0777 30.6887 32.0348 30.8106 32.0176 30.9034C32.0078 30.9562 32.0049 30.9909 32.0179 31.0224C32.0233 31.0354 32.0336 31.0475 32.0436 31.0523C32.053 31.0563 32.0623 31.0583 32.073 31.0583L32.0724 31.0584Z" fill="#435125"/>
<path d="M40.2803 10.8187L40.123 10.8814L40.0613 10.906L39.8707 10.8955L39.6921 10.9812L39.3754 11.1976L39.3614 11.2077L39.2433 11.2385L39.1337 11.1912L39.0714 11.2195L39.05 11.3478L38.9907 11.4399L38.9178 11.4912L38.665 11.517L38.4519 11.6269L38.1746 11.5527L38.0458 11.6031L37.7719 11.8498L37.6319 11.9161L37.583 11.9133L37.3974 11.9037L37.319 11.9294L37.202 12.0425L36.9805 12.0597L36.9115 12.1075L36.8034 12.3253L36.6863 12.4461L36.6192 12.4603L36.5466 12.4337L36.492 12.4433L36.4673 12.5827L36.4143 12.6411L36.2661 12.6921L36.1476 12.7908L36.0436 12.8442L35.9044 12.8407H35.8724L35.7337 12.9173L35.4728 12.9401L35.3643 13.0436L35.3404 13.0657L35.2897 13.0963L35.2069 13.1458L35.1866 13.1581L35.0867 13.1402L34.9697 13.1865L34.9224 13.1138L34.8415 13.1624L34.7344 13.167L34.6009 13.1076L34.4992 13.0623L34.4248 13.073L34.399 13.2026L34.3964 13.2164L34.3182 13.3204L34.1723 13.4088L34.1524 13.4347L33.9864 13.649L33.6709 13.9808L33.4041 14.1163L33.1276 14.2004L32.934 14.3595L32.4263 14.6111L31.6249 15.0098L31.461 15.0623L31.2259 15.0999L30.8064 15.2544L30.4363 15.366L30.4157 15.3723L30.3425 15.3945L29.8207 15.5523L29.5778 15.5267L29.434 15.5789L29.0595 15.5374L28.7991 15.5425L28.6343 15.5768L28.3245 15.7254L27.8015 15.9767L27.6288 16.1348L27.3597 16.2752L27.0447 16.375L27.0454 16.2426L27.0435 16.237L26.9342 16.2715L26.8553 16.2964L26.5998 16.3359H26.4576L26.3693 16.3102L26.3557 16.3148L25.8333 16.4869L25.2508 16.5432L24.9593 16.6367L24.7415 16.6332L24.6053 16.6737L24.3384 16.7063L24.243 16.6809L24.2215 16.675L23.4364 16.7091L23.0775 16.6685L22.9062 16.7075L22.6191 16.6109L22.2003 16.5624L22.1024 16.533L21.8823 16.4677L21.7826 16.5251L21.7081 16.533L21.5299 16.4684L21.4657 16.4668L21.3186 16.5199L21.234 16.4982L21.1553 16.4356L20.9709 16.4081L20.8585 16.3136L20.2303 16.3969L20.0599 16.3468L19.4883 16.1803L19.3974 16.1849L19.2841 16.2698L19.1138 16.3319L18.9661 16.3703L18.7648 16.3773L18.5312 16.316L18.2902 16.1992L18.2012 16.178L18.0025 16.198L17.9417 16.2036L17.5765 16.0077L17.106 15.7134L16.7867 15.56L16.6669 15.5406L16.6508 15.5976L16.7102 15.785L16.7305 15.9703L16.7244 16.1416L16.7211 16.2476L16.7509 16.3428L16.8662 16.4706L16.9142 16.5988L16.9494 16.9519L16.949 17.3101L16.8929 17.8815L16.874 17.9685L16.8071 18.2644L16.746 18.5363L16.5091 19.2601L16.444 19.3498L16.2843 19.4588L15.9222 19.7052L15.6556 19.8589L15.5713 19.8939L15.3549 19.9103L15.22 19.9032L15.0521 19.8123L14.8873 19.7699L14.6714 19.6146L14.4312 19.5649L14.1678 19.4127L14.0993 19.3303L13.9559 19.3168L13.7571 19.2572L13.7572 19.2568L13.6842 19.235L13.6337 19.2203V19.2202L13.3801 19.2133L13.1436 19.1041L13.0191 19.074L12.8489 19.0654L12.6708 19.1482L12.6707 19.1479L12.5804 19.1899L12.4664 19.1446L12.3839 19.1498L12.2904 19.2911L12.2764 19.313L12.212 19.3471L12.1318 19.3459L12.0691 19.3443L12.0012 19.3739L11.9098 19.4136V19.4138L11.8291 19.449L11.7897 19.466L11.789 19.4653L11.7648 19.4702L11.7217 19.4777L11.6682 19.4879L11.574 19.4329L11.5239 19.4033L11.4399 19.3862L11.3947 19.4189L11.3858 19.5726L11.3445 19.6647L11.2135 19.7806L11.0803 19.8978L10.9875 20.0346L10.7419 20.5952L10.588 20.8213L10.5403 20.874L10.3794 21.0515L10.2367 21.1622L9.90782 21.4171L9.59654 21.5334L9.32841 21.5882L9.19806 21.5887L8.95112 21.5559L8.7291 21.4877L8.48523 21.3353L8.21777 21.1203L7.83066 20.7379L7.77587 20.7049L7.76444 20.6973L7.64251 20.6193L7.55204 20.6217L7.51663 20.6801L7.49726 20.7645L7.48089 20.8393L7.43652 21.2647L7.4398 21.2893L7.46311 21.4645L7.75716 21.8754L7.84789 22.0937L7.86279 22.1186L7.92346 22.2205L7.96963 22.2982L7.97424 22.3061L8.07473 22.606L8.0041 22.7753L8.03978 22.8887L7.95052 22.9579L7.93415 23.0558L8.19813 23.3868L8.25572 23.5327L8.19138 23.7351L8.08876 23.8468L8.06009 23.8773L8.07452 23.9628L8.19599 24.0721L8.40238 24.2558L8.51242 24.5288L8.59614 24.602L8.69342 24.5813L8.74754 24.6226L8.82958 24.6212L8.91029 24.7019L8.96254 24.7272L9.04512 24.7684L9.1104 24.8534L9.12483 25.1147L9.24657 25.4394L9.24844 25.6155L9.24911 25.6404L9.32487 25.7706L9.34866 25.8734L9.3083 26.1452L9.40485 26.2325L9.50954 26.2111L9.57716 26.2218L9.6858 26.3123L9.81735 26.5128L9.94604 26.4939L10.0277 26.5333L10.422 26.8897L10.5115 26.9348L10.5164 26.9376L10.5808 26.9699L10.6607 27.0506L10.7847 26.9683L10.7985 26.9669L10.9333 26.955L10.9925 26.9949L11.1064 27.0717L11.2556 27.0697L11.5793 27.1689L11.7209 27.2052L12.0056 27.3821L12.1266 27.457L12.1982 27.5152L12.2933 27.5927L12.4834 27.6745L12.6464 27.7135L12.7348 27.7345L12.8012 27.7602L12.8029 27.756L12.8038 27.7563L12.8022 27.7605L13.1553 27.8957L13.3465 27.9403L13.5234 28.0054L13.6522 28.0524L13.7467 28.0539L13.8803 27.9416L14.0097 27.9341L14.1172 27.9609L14.2221 27.9433L14.3881 27.841L14.4205 27.793L14.5383 27.7369L14.9354 27.6876L15.0515 27.7253L15.3494 27.5957L15.5491 27.6512L15.7258 27.5885L16.1119 27.6743L16.2145 27.7465L16.3293 27.8778L16.3433 27.8784L16.471 27.8809L16.4177 27.9698L16.5862 28.1467L16.7385 28.3769L16.7488 28.4073L16.8595 28.7322L16.9418 28.8474L16.9994 29.008L17.0022 29.1128L16.9127 29.1811L16.898 29.22L16.8929 29.2345L16.9111 29.2782L16.9449 29.2598L17.0092 29.2242L17.0871 29.2121L17.2252 29.2268L17.3163 29.2363L17.4602 29.1649L17.5556 29.1175L17.7088 29.1834L17.8771 29.1816L17.9478 29.213L18.1479 29.3038L18.2501 29.3134L18.2878 29.2886L18.3119 29.2314L18.2995 29.1649L18.223 29.0765L18.0539 28.8802L17.9847 28.7793L17.932 28.6332L17.9156 28.4465L17.904 28.3206L17.925 28.1551L17.9704 28.096L18.0038 27.9645H18.0044L18.013 27.9301L18.107 27.8055L18.3558 27.6456L18.623 27.4063L18.8343 27.267L19.0521 27.1726L19.0579 27.1462L19.0822 27.1559L19.6362 26.9676L19.6453 26.9665L19.892 26.9235L21.557 27.0408L21.6187 27.0221L21.619 27.0217L21.6745 26.8661L21.7043 26.8372L21.7242 26.8184L21.9072 26.7378L21.9928 26.7256L22.2304 26.7842L22.3277 26.8082L22.4835 26.7209L22.594 26.7228L22.8223 26.5981L22.9634 26.6016L23.017 26.5802L23.2918 26.3827L23.5564 26.3069L23.6252 26.2703L23.6495 26.257L23.9207 26.1137L24.0931 25.9814L24.2418 25.9024L24.4047 25.8603L24.8309 25.8303L24.9167 25.6875L25.1 25.663L25.2107 25.5381L25.3374 25.4866L25.4282 25.3558L25.5043 25.2461L25.6106 25.1846L25.9513 25.1632L26.3552 25.2132L26.4086 25.1808L26.4999 24.8551L26.5954 24.794L26.8527 24.419L26.8536 24.2824L26.8539 24.1683L26.8961 24.0058L26.8674 23.7124L26.9015 23.4154L27.0614 23.0379L27.2024 22.8856L27.4296 22.7319L27.5451 22.6815L27.7087 22.654V22.6536L27.7328 22.6495L27.7745 22.6424L28.3379 22.6346C28.3457 22.6288 28.5428 22.6318 28.5428 22.6318L28.7307 22.6293L29.206 22.7139L29.2398 22.7198L29.4005 22.7718L29.5859 22.9159L29.782 23.1075L29.8188 23.1433L29.9459 23.1968L29.9843 23.2136L30.0893 23.1968L30.2388 23.119L30.3515 23.0236L30.5053 22.9396L30.509 22.9343L30.5955 22.8041L30.5981 22.8015L30.6 22.8019L30.6002 22.8012L30.5987 22.8009L30.6329 22.7491L30.93 22.6333L31.2794 22.613L31.3187 22.5917L31.3406 22.5801L31.4329 22.4716L31.5194 22.4709L31.7289 22.5466L31.8762 22.5174L31.9931 22.5641L32.0839 22.5534L32.2553 22.5331L32.4393 22.6626L32.5466 22.6763L32.9246 22.8974L32.9442 22.9006L32.9544 22.9025L32.976 22.906L33.0209 22.8927L33.0875 22.8734L33.0964 22.8708L33.1048 22.8824L33.1477 22.943L33.2067 22.9515L33.2764 22.8584L33.2487 22.8162L33.2382 22.8008L33.1032 22.7733L32.9819 22.566L33.0974 22.4417L32.9162 22.2195L32.8862 22.1826L32.8759 22.167L32.8133 22.0719L32.4962 21.5885L32.0832 21.2588L32.0831 21.2591L31.9384 21.1434L31.9375 21.1427L31.8868 21.1029L31.6662 20.8785L31.5087 20.6694L31.488 20.6244L31.4555 20.5534L31.3611 20.3477L31.1966 20.2211L31.0626 20.0747L31.056 20.0661L30.7794 19.6902L30.734 19.6272L30.6686 19.5894L30.5306 19.5885L30.5176 19.5754L30.5098 19.5673L30.5145 19.5624L30.5807 19.4965L30.6545 19.478L30.6863 19.4052L30.5455 18.9974L30.5446 18.9831L30.5341 18.8529L30.6489 18.2612L30.6636 18.1891L30.8592 17.7911L30.9804 17.6918L31.1127 17.4317L31.226 17.2655L31.3346 17.1598L31.3535 17.1486L31.5496 17.0299L31.7143 17.0067L31.8711 16.9846L32.145 17.0691L32.4056 17.064L32.4565 17.0586L32.5748 17.045L32.7692 16.9838L32.861 16.9271L32.9087 16.8541L33.008 16.5209L33.04 16.4148L33.1012 16.2997L33.4558 15.8916L33.7237 15.6437L34.3263 15.2018L34.6213 15.0255L34.7719 14.9355L36.1166 14.3378L36.466 13.9836L36.6481 13.7994L36.9702 13.5832L37.3471 13.4288L37.6714 13.1721L37.7422 13.083L37.8315 12.7955L37.9059 12.7775L37.973 12.6323L37.9921 12.591L38.2568 12.4044L38.2867 12.3895L39.3148 11.8744L39.4642 11.8949L39.5442 11.7751L39.8433 11.7249L39.8984 11.7156L39.9721 11.6788L40.0349 11.5719V11.5508L40.0435 11.2653L40.1074 11.1882L40.1422 11L40.175 10.9566L40.2093 10.9114L40.294 10.8519L40.2793 10.8164L40.2803 10.8187Z" fill="#D47600"/>
</svg>
